<svg width="32" height="32" viewBox="0 0 32 32" fill="none" xmlns="http://www.w3.org/2000/svg">
<path fill-rule="evenodd" clip-rule="evenodd" d="M0.87868 0.87868C2.05025 -0.292893 3.94975 -0.292893 5.12132 0.87868L16 11.7574L26.8787 0.87868C28.0503 -0.292893 29.9497 -0.292893 31.1213 0.87868C32.2929 2.05025 32.2929 3.94975 31.1213 5.12132L20.2426 16L31.1213 26.8787C32.2929 28.0503 32.2929 29.9497 31.1213 31.1213C29.9497 32.2929 28.0503 32.2929 26.8787 31.1213L16 20.2426L5.12132 31.1213C3.94975 32.2929 2.05025 32.2929 0.87868 31.1213C-0.292893 29.9497 -0.292893 28.0503 0.87868 26.8787L11.7574 16L0.87868 5.12132C-0.292893 3.94975 -0.292893 2.05025 0.87868 0.87868Z" fill="white"/>
</svg>
